<?xml version="1.0" encoding="UTF-8"?>
<svg id="Layer_2" data-name="Layer 2" xmlns="http://www.w3.org/2000/svg" viewBox="0 0 407.37 472.41">
  <defs>
    <style>
      .cls-1 {
        fill: #e91b8d;
      }
    </style>
  </defs>
  <g id="Layer_1-2" data-name="Layer 1">
    <g>
      <path class="cls-1" d="M404.96,169.88c-4.27-29.75-13.21-56.04-26.84-78.9-13.63-22.85-30.67-41.49-51.12-55.94-20.45-14.44-43.56-24.46-69.33-30.07-25.78-5.6-52.94-6.47-81.47-2.59-28.55,3.88-54.42,12.19-77.63,24.9-23.23,12.72-42.61,29-58.15,48.83-15.56,19.84-26.84,42.58-33.87,68.23C-.47,169.99-1.84,197.69,2.41,227.44c3.83,29.75,12.56,55.94,26.2,78.58,13.63,22.64,30.67,41.18,51.12,55.62,20.45,14.45,43.66,24.47,69.65,30.07,25.97,5.59,53.24,6.47,81.79,2.59,28.53-3.88,54.41-12.18,77.63-24.9,23.21-12.71,42.59-28.88,58.15-48.5,15.55-19.61,26.84-42.25,33.87-67.9,7.02-25.65,8.4-53.35,4.15-83.1Z"/>
      <g>
        <path d="M167.19,118.54c-.52-3.61-1.6-6.81-3.26-9.58-1.66-2.77-3.72-5.04-6.21-6.79-2.48-1.75-5.29-2.97-8.42-3.65-3.13-.68-6.43-.79-9.89-.31-3.47.47-6.61,1.48-9.43,3.02-2.82,1.55-5.17,3.52-7.06,5.93-1.89,2.41-3.26,5.17-4.11,8.29-.85,3.12-1.02,6.48-.5,10.09.47,3.61,1.53,6.79,3.18,9.54,1.66,2.75,3.73,5,6.21,6.76,2.48,1.75,5.3,2.97,8.46,3.65,3.15.68,6.47.79,9.93.31,3.47-.47,6.61-1.48,9.43-3.02,2.82-1.54,5.17-3.51,7.06-5.89,1.89-2.38,3.26-5.13,4.11-8.25.85-3.12,1.02-6.48.5-10.09Z"/>
        <path d="M289.82,118.54c-.52-3.61-1.6-6.81-3.26-9.58-1.66-2.77-3.72-5.04-6.21-6.79-2.48-1.75-5.29-2.97-8.42-3.65-3.13-.68-6.43-.79-9.89-.31-3.47.47-6.61,1.48-9.43,3.02-2.82,1.55-5.17,3.52-7.06,5.93-1.89,2.41-3.26,5.17-4.11,8.29-.85,3.12-1.02,6.48-.5,10.09.47,3.61,1.53,6.79,3.18,9.54,1.66,2.75,3.73,5,6.21,6.76,2.48,1.75,5.3,2.97,8.46,3.65,3.15.68,6.47.79,9.93.31,3.47-.47,6.61-1.48,9.43-3.02,2.82-1.54,5.17-3.51,7.06-5.89,1.89-2.38,3.26-5.13,4.11-8.25.85-3.12,1.02-6.48.5-10.09Z"/>
        <path d="M171.64,301.49c-22.27,0-46.7-6.98-72.05-20.74-4.22-2.29-5.78-7.57-3.49-11.79,2.29-4.22,7.57-5.78,11.79-3.49,32.5,17.65,62.63,22.9,87.15,15.19,27.59-8.68,56.97-35.44,71.1-48.3,5.94-5.41,11.1-10.5,15.65-14.99,6.19-6.11,11.08-10.93,15.55-14.26,2.54-1.89,10.27-7.64,18.6-3.96,10.61,4.69,13.3,19.67,9.01,50.09-.67,4.76-5.07,8.06-9.83,7.39-4.76-.67-8.07-5.07-7.39-9.83,2.68-18.99,1.79-27.2.96-30.48-3.54,2.41-9.62,8.41-14.69,13.41-4.67,4.61-9.96,9.83-16.16,15.47-15.04,13.7-46.34,42.2-77.59,52.03-9.03,2.84-18.61,4.25-28.62,4.25Z"/>
      </g>
      <path d="M88.24,437.59c-4.11,0-7.59-3.17-7.91-7.34-.95-12.53.14-24.99,3.22-37.03,4.71-18.38,14.16-35.63,27.33-49.87,2.98-3.22,8-3.41,11.22-.44,3.22,2.98,3.41,8,.44,11.22-7.94,8.58-18.48,23.02-23.61,43.03-2.65,10.36-3.59,21.09-2.77,31.89.33,4.37-2.95,8.18-7.32,8.51-.2.02-.41.02-.61.02Z"/>
      <path d="M296.4,437.59c-.2,0-.4,0-.61-.02-4.37-.33-7.65-4.14-7.32-8.51.82-10.8-.12-21.53-2.77-31.89-4.06-15.84-12.22-30.71-23.61-43.03-2.98-3.22-2.78-8.24.44-11.22,3.22-2.98,8.24-2.78,11.22.44,13.17,14.24,22.62,31.48,27.33,49.87,3.08,12.04,4.17,24.5,3.22,37.03-.31,4.17-3.8,7.34-7.91,7.34Z"/>
      <ellipse cx="57.82" cy="446.94" rx="54.96" ry="25.47"/>
      <ellipse cx="328.15" cy="446.94" rx="54.96" ry="25.47"/>
    </g>
  </g>
</svg>