<?xml version="1.0" encoding="UTF-8"?>
<svg id="replay" xmlns="http://www.w3.org/2000/svg" viewBox="0 0 136.91 150.62">
  <defs>
    <style>
      .cls-1 {
        fill: #41217b;
      }

      .cls-1, .cls-2, .cls-3, .cls-4 {
        stroke-width: 0px;
      }

      .cls-2 {
        fill: #613acc;
      }

      .cls-3 {
        fill: #4f1cb8;
      }

      .cls-5 {
        fill: none;
        stroke: #ffc7a9;
        stroke-miterlimit: 10;
        stroke-width: 1.23px;
      }

      .cls-4 {
        fill: #fff;
      }
    </style>
  </defs>
  <g id="bg">
    <path class="cls-4" d="M101.86,148.83H34.69c-17.36,0-31.48-14.12-31.48-31.48V36.9c0-1.56.12-3.14.36-4.7v-6.63C3.57,14.05,12.95,4.67,24.47,4.67h88.32c11.53,0,20.9,9.38,20.9,20.9v88.32c0,1.29-.12,2.59-.36,3.86-.22,17.17-14.26,31.08-31.48,31.08ZM24.47,12.39c-7.27,0-13.19,5.91-13.19,13.19v7.24l-.05.31c-.2,1.26-.31,2.54-.31,3.79v80.45c0,13.1,10.66,23.76,23.76,23.76h67.17c13.1,0,23.76-10.65,23.76-23.75v-.4l.08-.39c.18-.88.28-1.78.28-2.68V25.57c0-7.27-5.91-13.19-13.19-13.19H24.47Z"/>
    <g>
      <rect class="cls-1" x="10.69" y="13.45" width="114.85" height="127.31" rx="21.07" ry="21.07"/>
      <g>
        <rect class="cls-3" x="11.03" y="12.74" width="114.85" height="114.85" rx="13" ry="13"/>
        <path class="cls-5" d="M125.88,111.6c0,8.8-7.2,15.99-15.99,15.99H27.02c-8.8,0-15.99-7.2-15.99-15.99"/>
        <path class="cls-2" d="M118.36,31.5v77.38c0,1.1-.17,2.15-.48,3.15-.69,2.2-2.07,4.11-3.9,5.45-1.77,1.3-3.94,2.07-6.29,2.07H30.31c-1.97,0-3.82-.54-5.41-1.48-1.98-1.17-3.56-2.97-4.45-5.12-.52-1.25-.81-2.63-.81-4.07V31.5c0-2.31.75-4.45,2.01-6.2,1.25-1.74,3-3.09,5.05-3.83,1.13-.41,2.35-.64,3.61-.64h77.38c1.45,0,2.83.29,4.09.83,1.95.81,3.61,2.19,4.77,3.93,1.14,1.69,1.8,3.73,1.8,5.91Z"/>
      </g>
    </g>
  </g>
  <g id="white-btn">
    <g>
      <path class="cls-1" d="M90.83,69.16c-1.09-1.16-2.62-1.8-4.32-1.8-.18,0-.37,0-.56.02-3.17.25-5.26,2.7-5.44,6.4-.41,8.38-5.62,13.62-13.94,14.02-.27.01-.53.02-.8.02-6.05,0-11.1-3.29-13.17-8.58-2.38-6.09-.83-13.28,3.7-17.11,2.37-2,5.19-3.08,8.61-3.28,0,.97,0,1.9.03,2.85.07,1.48.84,3.17,2.56,3.03.95-.07,1.78-.64,2.48-1.29,2.14-1.98,4.15-4.1,6.21-6.16l1.44-1.45c1.82-1.83,1.82-3.07,0-4.92-2.01-2.06-4.02-4.11-6.04-6.17l-2.44-2.49c-.32-.33-.76-.51-1.22-.51,0,0-.82,0-.82,0-2.7,0-1.61,5.08-2.47,5.17-1.24.13-2.51.27-3.77.54-11.92,2.61-20.85,13.11-21.21,24.96-.32,10.2,4.42,18.29,14.08,24.04,8.27,4.93,18.99,4.15,26.77-1.37,7.39-5.24,11.41-12.28,11.94-20.91.12-1.98-.46-3.76-1.65-5.02Z"/>
      <polygon class="cls-1" points="81.83 47.94 78.89 54.06 73.12 49.9 78.47 44.77 81.83 47.94"/>
      <path class="cls-1" d="M84.56,63.79l-3.48,7.25s2.29,1.23,2.46,1.23,4.38-7.63,4.38-7.63l-3.36-.85Z"/>
    </g>
    <path class="cls-4" d="M93.81,62.91c-1.09-1.16-2.62-1.8-4.32-1.8-.18,0-.37,0-.56.02-3.17.25-5.26,2.7-5.44,6.4-.41,8.38-5.62,13.62-13.94,14.02-.27.01-.53.02-.8.02-6.05,0-11.1-3.29-13.17-8.58-2.38-6.09-.83-13.28,3.7-17.11,2.37-2,5.19-3.08,8.61-3.28,0,.97,0,1.9.03,2.85.07,1.48.84,3.17,2.56,3.03.95-.07,1.78-.64,2.48-1.29,2.14-1.98,4.15-4.1,6.21-6.16l1.44-1.45c1.82-1.83,1.82-3.07,0-4.92-2.01-2.06-4.02-4.11-6.04-6.17l-2.44-2.49c-.32-.33-.76-.51-1.22-.51,0,0-.82,0-.82,0-2.7,0-1.61,5.08-2.47,5.17-1.24.13-2.51.27-3.77.54-11.92,2.61-20.85,13.11-21.21,24.96-.32,10.2,4.42,18.29,14.08,24.04,8.27,4.93,18.99,4.15,26.77-1.37,7.39-5.24,11.41-12.28,11.94-20.91.12-1.98-.46-3.76-1.65-5.02Z"/>
  </g>
</svg>