<?xml version="1.0" encoding="UTF-8"?>
<svg id="pause" xmlns="http://www.w3.org/2000/svg" viewBox="0 0 136.91 150.62">
  <defs>
    <style>
      .cls-1 {
        fill: #41217b;
      }

      .cls-1, .cls-2, .cls-3, .cls-4 {
        stroke-width: 0px;
      }

      .cls-2 {
        fill: #613acc;
      }

      .cls-3 {
        fill: #4f1cb8;
      }

      .cls-4 {
        fill: #fff;
      }

      .cls-5 {
        fill: none;
        stroke: #ffcaa9;
        stroke-miterlimit: 10;
        stroke-width: 1.23px;
      }
    </style>
  </defs>
  <g id="bg">
    <path class="cls-4" d="M102.48,147.79H36.16c-17.14,0-31.08-13.94-31.08-31.08V37.29c0-1.54.12-3.1.35-4.64v-6.54C5.44,14.72,14.7,5.46,26.08,5.46h87.2c11.38,0,20.64,9.26,20.64,20.64v87.2c0,1.28-.12,2.56-.36,3.81-.21,16.95-14.08,30.68-31.08,30.68ZM26.08,13.08c-7.18,0-13.02,5.84-13.02,13.02v7.15l-.05.3c-.2,1.25-.3,2.51-.3,3.74v79.42c0,12.93,10.52,23.46,23.46,23.46h66.31c12.93,0,23.45-10.52,23.46-23.45v-.39l.08-.38c.18-.87.27-1.76.27-2.65V26.1c0-7.18-5.84-13.02-13.02-13.02H26.08Z"/>
    <g>
      <rect class="cls-1" x="12.03" y="13.33" width="114.85" height="127.31" rx="21.07" ry="21.07"/>
      <g>
        <rect class="cls-3" x="12.37" y="12.62" width="114.85" height="114.85" rx="13" ry="13"/>
        <path class="cls-5" d="M127.22,111.48c0,8.8-7.2,15.99-15.99,15.99H28.36c-8.8,0-15.99-7.2-15.99-15.99"/>
        <path class="cls-2" d="M119.69,31.37v77.38c0,1.1-.17,2.15-.48,3.15-.69,2.2-2.07,4.11-3.9,5.45-1.77,1.3-3.94,2.07-6.29,2.07H31.65c-1.97,0-3.82-.54-5.41-1.48-1.98-1.17-3.56-2.97-4.45-5.12-.52-1.25-.81-2.63-.81-4.07V31.37c0-2.31.75-4.45,2.01-6.2,1.25-1.74,3-3.09,5.05-3.83,1.13-.41,2.35-.64,3.61-.64h77.38c1.45,0,2.83.29,4.09.83,1.95.81,3.61,2.19,4.77,3.93,1.14,1.69,1.8,3.73,1.8,5.91Z"/>
      </g>
    </g>
  </g>
  <g id="white-btn">
    <g>
      <path class="cls-1" d="M48.1,72.55c0,6.83-.1,13.67.03,20.5.11,5.35,3.78,8.34,8.53,7.26,2.83-.65,4.36-2.57,5-5.24.26-1.09.27-2.26.27-3.39.02-12.91.02-25.81,0-38.72,0-5.71-2.51-9.03-6.77-9.1-4.49-.08-7.06,3.17-7.08,9.05-.02,6.55,0,13.1,0,19.64,0,0,.01,0,.02,0Z"/>
      <polygon class="cls-1" points="60.77 97.55 64.28 89.27 59.75 43.35 52.36 40.05 48.94 47.93 60.77 97.55"/>
    </g>
    <path class="cls-4" d="M64.59,65.87c0,6.92.09,13.85-.03,20.77-.1,5.54-4.21,8.65-9.06,7.09-2.91-.94-4.59-3.49-4.62-7.4-.06-9.1-.04-18.21-.03-27.31,0-4.84-.11-9.68.08-14.51.21-5.33,4.84-8.46,9.46-6.53,3.12,1.31,4.17,3.97,4.19,7.13.04,6.92.01,13.85.01,20.77Z"/>
    <g>
      <g>
        <path class="cls-1" d="M74.65,72.55c0,6.83-.1,13.67.03,20.5.11,5.35,3.78,8.34,8.53,7.26,2.83-.65,4.36-2.57,5-5.24.26-1.09.27-2.26.27-3.39.02-12.91.02-25.81,0-38.72,0-5.71-2.51-9.03-6.77-9.1-4.49-.08-7.06,3.17-7.08,9.05-.02,6.55,0,13.1,0,19.64,0,0,.01,0,.02,0Z"/>
        <polygon class="cls-1" points="87.32 97.55 90.84 89.27 86.3 43.35 78.91 40.05 75.49 47.93 87.32 97.55"/>
      </g>
      <path class="cls-4" d="M91.14,65.87c0,6.92.09,13.85-.03,20.77-.1,5.54-4.21,8.65-9.06,7.09-2.91-.94-4.59-3.49-4.62-7.4-.06-9.1-.04-18.21-.03-27.31,0-4.84-.11-9.68.08-14.51.21-5.33,4.84-8.46,9.46-6.53,3.12,1.31,4.17,3.97,4.19,7.13.04,6.92.01,13.85.01,20.77Z"/>
    </g>
  </g>
</svg>