<?xml version="1.0" encoding="UTF-8"?>
<svg xmlns="http://www.w3.org/2000/svg" xmlns:xlink="http://www.w3.org/1999/xlink" viewBox="0 0 136.91 150.62">
  <defs>
    <style>
      .cls-1 {
        fill: #41217b;
      }

      .cls-1, .cls-2, .cls-3, .cls-4, .cls-5, .cls-6, .cls-7 {
        stroke-width: 0px;
      }

      .cls-2 {
        fill: #613acc;
      }

      .cls-8 {
        clip-path: url(#clippath-2);
      }

      .cls-3, .cls-9 {
        fill: none;
      }

      .cls-4 {
        fill: url(#_Áåçûìÿííûé_ãðàäèåíò_2);
      }

      .cls-5 {
        fill: #4f1cb8;
      }

      .cls-10 {
        clip-path: url(#clippath-3);
      }

      .cls-9 {
        stroke: #ffc7a9;
        stroke-miterlimit: 10;
        stroke-width: 1.23px;
      }

      .cls-6 {
        fill: #fff;
      }

      .cls-7 {
        fill: url(#_Áåçûìÿííûé_ãðàäèåíò_2-2);
      }
    </style>
    <clipPath id="clippath">
      <rect class="cls-3" x="-2535.5" y="466.78" width="1920" height="1080"/>
    </clipPath>
    <clipPath id="clippath-2">
      <rect class="cls-3" x="-2535.5" y="-1003.86" width="1920" height="1080"/>
    </clipPath>
    <clipPath id="clippath-3">
      <rect class="cls-3" x="-3164.19" y="-1006.25" width="3037.38" height="1084.78"/>
    </clipPath>
    <linearGradient id="_Áåçûìÿííûé_ãðàäèåíò_2" data-name="Áåçûìÿííûé ãðàäèåíò 2" x1="-1882.04" y1="41.57" x2="-1882.04" y2="-194.35" gradientTransform="translate(-1922.61) rotate(-180) scale(1 -1)" gradientUnits="userSpaceOnUse">
      <stop offset="0" stop-color="#0a010f"/>
      <stop offset=".21" stop-color="#07000b"/>
      <stop offset="1" stop-color="#010001"/>
    </linearGradient>
    <linearGradient id="_Áåçûìÿííûé_ãðàäèåíò_2-2" data-name="Áåçûìÿííûé ãðàäèåíò 2" x1="-1905.61" y1="62.06" x2="-1905.61" y2="-207.13" xlink:href="#_Áåçûìÿííûé_ãðàäèåíò_2"/>
  </defs>
  <g id="Output_copy" data-name="Output copy">
    <g class="cls-8">
      <g class="cls-10">
        <g>
          <polygon class="cls-4" points="-182.21 -192.56 70.65 41.57 101.07 39.53 -163.66 -194.35 -182.21 -192.56"/>
          <polygon class="cls-7" points="-160.83 62.06 147.66 -207.13 129.02 -205.67 -181.66 60.15 -160.83 62.06"/>
        </g>
      </g>
    </g>
  </g>
  <g id="play">
    <g id="bg">
      <path class="cls-6" d="M102.88,146.83H36.36c-17.19,0-31.17-13.93-31.17-31.04V36.46c0-1.54.12-3.09.35-4.64v-6.53C5.55,13.92,14.83,4.67,26.25,4.67h87.46c11.41,0,20.7,9.25,20.7,20.61v87.1c0,1.28-.12,2.55-.36,3.81-.22,16.93-14.12,30.65-31.17,30.65ZM26.25,12.28c-7.2,0-13.06,5.83-13.06,13v7.14l-.05.3c-.2,1.25-.31,2.5-.31,3.74v79.33c0,12.92,10.56,23.43,23.53,23.43h66.51c12.97,0,23.52-10.51,23.53-23.42v-.39l.08-.38c.18-.87.27-1.76.27-2.64V25.28c0-7.17-5.86-13-13.06-13H26.25Z"/>
      <g>
        <g>
          <rect class="cls-1" x="12.38" y="12.45" width="114.85" height="127.31" rx="21.07" ry="21.07"/>
          <g>
            <rect class="cls-5" x="12.38" y="12.45" width="114.85" height="114.85" rx="13" ry="13"/>
            <path class="cls-9" d="M127.23,111.31c0,8.8-7.2,15.99-15.99,15.99H28.37c-8.8,0-15.99-7.2-15.99-15.99"/>
          </g>
        </g>
        <path class="cls-2" d="M119.5,32.37v77.38c0,1.1-.17,2.15-.48,3.15-.69,2.2-2.07,4.11-3.9,5.45-1.77,1.3-3.94,2.07-6.29,2.07H31.46c-1.97,0-3.82-.54-5.41-1.48-1.98-1.17-3.56-2.97-4.45-5.12-.52-1.25-.81-2.63-.81-4.07V32.37c0-2.31.75-4.45,2.01-6.2,1.25-1.74,3-3.09,5.05-3.83,1.13-.41,2.35-.64,3.61-.64h77.38c1.45,0,2.83.29,4.09.83,1.95.81,3.61,2.19,4.77,3.93,1.14,1.69,1.8,3.73,1.8,5.91Z"/>
      </g>
    </g>
    <g id="white-btn">
      <g>
        <path class="cls-1" d="M50.43,75.61c0-6.84-.04-13.67.01-20.51.04-5.02,2.47-6.43,6.8-3.96,12.01,6.86,24.01,13.75,35.99,20.67,4.28,2.47,4.26,5.41-.01,7.88-11.91,6.86-23.84,13.7-35.78,20.51-4.69,2.67-6.96,1.36-7.01-4.09-.07-6.83-.02-13.67-.02-20.51h.01Z"/>
        <polygon class="cls-1" points="51.52 50.94 56.12 42.8 100.45 69.25 95.94 77.34 51.52 50.94"/>
      </g>
      <path class="cls-6" d="M54.87,67.64c0-6.84-.04-13.67.01-20.51.04-5.02,2.47-6.43,6.8-3.96,12.01,6.86,24.01,13.75,35.99,20.67,4.28,2.47,4.26,5.41-.01,7.88-11.91,6.86-23.84,13.7-35.78,20.51-4.69,2.67-6.96,1.36-7.01-4.09-.07-6.83-.02-13.67-.02-20.51h.01Z"/>
    </g>
  </g>
</svg>