<?xml version="1.0" encoding="UTF-8"?>
<svg id="icon3" xmlns="http://www.w3.org/2000/svg" viewBox="0 0 602.15 493.18">
  <defs>
    <style>
      .cls-1 {
        fill: #ec5c24;
      }
    </style>
  </defs>
  <g id="icon3wholebody">
    <path id="icon3body" class="cls-1" d="M448.75,188.41c-3.13-21.83-9.69-41.12-19.69-57.89-10-16.76-22.5-30.44-37.5-41.04-15-10.59-31.96-17.95-50.86-22.06-18.91-4.11-38.84-4.75-59.77-1.9-20.94,2.85-39.93,8.94-56.96,18.27-17.04,9.33-31.26,21.28-42.66,35.82-11.41,14.55-19.69,31.24-24.85,50.06-5.16,18.82-6.17,39.14-3.05,60.97,2.81,21.83,9.21,41.04,19.22,57.65,10,16.61,22.5,30.21,37.5,40.81,15,10.6,32.03,17.96,51.1,22.06,19.06,4.1,39.06,4.74,60.01,1.9,20.93-2.85,39.92-8.93,56.96-18.27,17.03-9.33,31.25-21.19,42.66-35.59,11.41-14.39,19.69-31,24.85-49.82,5.15-18.82,6.17-39.14,3.05-60.97Z"/>
    <g id="icon3face">
      <path id="icon3eyeleft" d="M274.3,150.75c-.38-2.65-1.18-4.99-2.39-7.03-1.21-2.04-2.73-3.7-4.55-4.98-1.82-1.29-3.88-2.18-6.18-2.68-2.3-.5-4.72-.58-7.26-.23-2.54.35-4.85,1.09-6.92,2.22-2.07,1.13-3.8,2.58-5.18,4.35-1.39,1.77-2.39,3.79-3.02,6.08-.63,2.29-.75,4.75-.37,7.41.34,2.65,1.12,4.98,2.33,7,1.21,2.02,2.73,3.67,4.55,4.96,1.82,1.29,3.89,2.18,6.21,2.68,2.31.5,4.74.58,7.29.23,2.54-.35,4.85-1.09,6.92-2.22,2.07-1.13,3.8-2.57,5.18-4.32,1.39-1.75,2.39-3.76,3.02-6.05.63-2.29.75-4.75.37-7.41Z"/>
      <path id="icon3eyeright" d="M364.27,150.75c-.38-2.65-1.18-4.99-2.39-7.03-1.21-2.04-2.73-3.7-4.55-4.98-1.82-1.29-3.88-2.18-6.18-2.68-2.3-.5-4.72-.58-7.26-.23-2.54.35-4.85,1.09-6.92,2.22-2.07,1.13-3.8,2.58-5.18,4.35-1.39,1.77-2.39,3.79-3.02,6.08-.63,2.29-.75,4.75-.37,7.41.34,2.65,1.12,4.98,2.33,7,1.21,2.02,2.73,3.67,4.55,4.96,1.82,1.29,3.89,2.18,6.21,2.68,2.31.5,4.74.58,7.29.23,2.54-.35,4.85-1.09,6.92-2.22,2.07-1.13,3.8-2.57,5.18-4.32,1.39-1.75,2.39-3.76,3.02-6.05.63-2.29.75-4.75.37-7.41Z"/>
      <g id="icon3mouth">
        <path d="M301.86,211.15c.19,0,.38,0,.57,0,33.01.21,63.02,18.78,78.14,47.82,1.61,3.1.2,6.92-3,8.3l-.37.16c-2.92,1.26-6.28.02-7.75-2.8-13.01-24.91-38.77-40.83-67.1-41.01-.16,0-.33,0-.49,0-28.54,0-54.45,15.87-67.56,40.97-1.48,2.84-4.87,4.09-7.81,2.82l-.33-.14c-3.21-1.39-4.61-5.2-3-8.3,15.23-29.29,45.42-47.82,78.7-47.82Z"/>
        <path d="M213.63,246.51c2.93-.76,5.92.79,7.12,3.57,2.06,4.77,5.19,8.92,9.36,12.37,4.14,3.43,8.55,5.56,11.78,6.79,2.74,1.05,4.3,3.94,3.74,6.82l-.07.35c-.73,3.69-4.61,5.83-8.12,4.48-4.25-1.63-9.91-4.38-15.28-8.84-5.77-4.78-10.1-10.55-12.93-17.19-1.46-3.42.45-7.34,4.05-8.27l.35-.09Z"/>
        <path d="M358.11,276s0,.05.01.08l.16.79-.09-.46c.72,3.7,4.61,5.84,8.13,4.49,4.25-1.63,9.9-4.38,15.27-8.83,5.77-4.78,10.1-10.55,12.93-17.19,1.46-3.42-.45-7.34-4.05-8.27l-.35-.09c-2.93-.76-5.92.79-7.12,3.57-2.06,4.77-5.19,8.92-9.36,12.37-4.13,3.43-8.54,5.55-11.77,6.79-2.72,1.04-4.28,3.9-3.75,6.75h0Z"/>
      </g>
    </g>
    <path id="icon3legleft" d="M216.37,384.83c-3.02,0-5.57-2.33-5.8-5.39-.69-9.19.1-18.33,2.36-27.17,3.46-13.49,10.39-26.14,20.05-36.59,2.18-2.36,5.87-2.51,8.23-.32,2.36,2.18,2.5,5.87.32,8.23-5.83,6.3-13.56,16.89-17.32,31.57-1.95,7.6-2.63,15.48-2.03,23.4.24,3.21-2.16,6-5.37,6.25-.15.01-.3.02-.44.02Z"/>
    <path id="icon3legright" d="M369.1,384.83c-.15,0-.3,0-.44-.02-3.21-.24-5.61-3.04-5.37-6.25.6-7.92-.09-15.8-2.03-23.4-2.98-11.62-8.97-22.53-17.32-31.57-2.18-2.36-2.04-6.05.32-8.23,2.36-2.18,6.05-2.04,8.23.32,9.66,10.45,16.6,23.1,20.05,36.59,2.26,8.83,3.06,17.97,2.36,27.17-.23,3.06-2.78,5.39-5.8,5.39Z"/>
    <ellipse id="icon3feetleft" cx="194.06" cy="391.68" rx="40.33" ry="18.69"/>
    <ellipse id="icon3feetright" cx="392.39" cy="391.68" rx="40.33" ry="18.69"/>
  </g>
</svg>