<?xml version="1.0" encoding="UTF-8"?>
<svg id="icon1" xmlns="http://www.w3.org/2000/svg" viewBox="0 0 602.15 493.18">
  <defs>
    <style>
      .cls-1 {
        fill: #e91b8d;
      }
    </style>
  </defs>
  <g id="icon1wholebody">
    <path id="icon1body" class="cls-1" d="M467.62,188.41c-3.13-21.83-9.69-41.12-19.69-57.89-10-16.76-22.5-30.44-37.5-41.04-15-10.59-31.96-17.95-50.86-22.06-18.91-4.11-38.84-4.75-59.77-1.9-20.94,2.85-39.93,8.94-56.96,18.27-17.04,9.33-31.26,21.28-42.66,35.82-11.41,14.55-19.69,31.24-24.85,50.06-5.16,18.82-6.17,39.14-3.05,60.97,2.81,21.83,9.21,41.04,19.22,57.65,10,16.61,22.5,30.21,37.5,40.81,15,10.6,32.03,17.96,51.1,22.06,19.06,4.1,39.06,4.74,60.01,1.9,20.93-2.85,39.92-8.93,56.96-18.27,17.03-9.33,31.25-21.19,42.66-35.59,11.41-14.39,19.69-31,24.85-49.82,5.15-18.82,6.17-39.14,3.05-60.97Z"/>
    <g id="icon1face">
      <path id="icon1eyeleft" d="M293.17,150.75c-.38-2.65-1.18-4.99-2.39-7.03-1.21-2.04-2.73-3.7-4.55-4.98-1.82-1.29-3.88-2.18-6.18-2.68-2.3-.5-4.72-.58-7.26-.23-2.54.35-4.85,1.09-6.92,2.22-2.07,1.13-3.8,2.58-5.18,4.35-1.39,1.77-2.39,3.79-3.02,6.08-.63,2.29-.75,4.75-.37,7.41.34,2.65,1.12,4.98,2.33,7,1.21,2.02,2.73,3.67,4.55,4.96,1.82,1.29,3.89,2.18,6.21,2.68,2.31.5,4.74.58,7.29.23,2.54-.35,4.85-1.09,6.92-2.22,2.07-1.13,3.8-2.57,5.18-4.32,1.39-1.75,2.39-3.76,3.02-6.05.63-2.29.75-4.75.37-7.41Z"/>
      <path id="icon1eyeright" d="M383.14,150.75c-.38-2.65-1.18-4.99-2.39-7.03-1.21-2.04-2.73-3.7-4.55-4.98-1.82-1.29-3.88-2.18-6.18-2.68-2.3-.5-4.72-.58-7.26-.23-2.54.35-4.85,1.09-6.92,2.22-2.07,1.13-3.8,2.58-5.18,4.35-1.39,1.77-2.39,3.79-3.02,6.08-.63,2.29-.75,4.75-.37,7.41.34,2.65,1.12,4.98,2.33,7,1.21,2.02,2.73,3.67,4.55,4.96,1.82,1.29,3.89,2.18,6.21,2.68,2.31.5,4.74.58,7.29.23,2.54-.35,4.85-1.09,6.92-2.22,2.07-1.13,3.8-2.57,5.18-4.32,1.39-1.75,2.39-3.76,3.02-6.05.63-2.29.75-4.75.37-7.41Z"/>
      <path id="icon1mouth" d="M296.44,284.97c-16.34,0-34.26-5.12-52.86-15.22-3.1-1.68-4.24-5.55-2.56-8.65,1.68-3.1,5.55-4.24,8.65-2.56,23.84,12.95,45.95,16.8,63.94,11.14,20.24-6.37,41.8-26,52.16-35.43,4.36-3.97,8.14-7.7,11.48-11,4.54-4.48,8.13-8.02,11.41-10.46,1.86-1.39,7.54-5.61,13.65-2.9,7.78,3.44,9.76,14.43,6.61,36.75-.49,3.49-3.72,5.92-7.21,5.42-3.49-.49-5.92-3.72-5.42-7.21,1.97-13.93,1.31-19.95.7-22.36-2.59,1.77-7.06,6.17-10.78,9.84-3.43,3.38-7.31,7.21-11.85,11.35-11.04,10.05-34,30.96-56.92,38.17-6.62,2.08-13.65,3.12-20.99,3.12Z"/>
    </g>
    <path id="icon1legleft" d="M235.25,384.83c-3.02,0-5.57-2.33-5.8-5.39-.69-9.19.1-18.33,2.36-27.17,3.46-13.49,10.39-26.14,20.05-36.59,2.18-2.36,5.87-2.51,8.23-.32,2.36,2.18,2.5,5.87.32,8.23-5.83,6.3-13.56,16.89-17.32,31.57-1.95,7.6-2.63,15.48-2.03,23.4.24,3.21-2.16,6-5.37,6.25-.15.01-.3.02-.44.02Z"/>
    <path id="icon1legright" d="M387.97,384.83c-.15,0-.3,0-.44-.02-3.21-.24-5.61-3.04-5.37-6.25.6-7.92-.09-15.8-2.03-23.4-2.98-11.62-8.97-22.53-17.32-31.57-2.18-2.36-2.04-6.05.32-8.23,2.36-2.18,6.05-2.04,8.23.32,9.66,10.45,16.6,23.1,20.05,36.59,2.26,8.83,3.06,17.97,2.36,27.17-.23,3.06-2.78,5.39-5.8,5.39Z"/>
    <ellipse id="icon1feetleft" cx="212.94" cy="391.68" rx="40.33" ry="18.69"/>
    <ellipse id="icon1feetright" cx="411.27" cy="391.68" rx="40.33" ry="18.69"/>
  </g>
</svg>