<svg width="78" height="76" viewBox="0 0 78 76" fill="none" xmlns="http://www.w3.org/2000/svg">
<path d="M68.3975 0H9.60253C4.85148 0 1 3.8008 1 8.48933V66.5107C1 71.1992 4.85148 75 9.60253 75H68.3975C73.1485 75 77 71.1992 77 66.5107V8.48933C77 3.8008 73.1485 0 68.3975 0Z" fill="black"/>
<path d="M77 65C77 70.5034 72.2355 75 66.4189 75H11.5811C5.75786 75 1 70.4972 1 65" stroke="#FFCAA9" stroke-width="1.23" stroke-miterlimit="10"/>
<path d="M42.1566 25.5969H63.6736C63.3644 22.6976 59.9675 19.8757 54.7634 18.0637L42.1566 25.5969ZM14.4063 25.5969H35.6093L21.9926 18.5614C17.5472 20.3541 14.6866 23.1808 14.4063 25.5969ZM66.0751 26.5633H12.0048C12.0048 26.5053 12.0048 26.4521 12.0048 26.3941C12 19.5472 24.109 14 39.04 14C53.9709 14 66.08 19.5472 66.08 26.3941C66.08 26.4521 66.08 26.5053 66.0751 26.5633ZM40.0064 24.9397L52.5117 17.4694C48.8876 16.4837 44.3552 15.8845 40.0064 15.812V24.9397ZM38.0736 24.9928V15.812C32.7584 15.8893 28.1341 16.6383 24.2492 17.8511L38.0736 24.9928Z" fill="#F1EEDA"/>
<path d="M66.0752 26.5632H66.08C66.08 41.9919 54.7489 63.2093 40.4896 64.5767V57.4882H37.5904V64.5767C23.3311 63.2093 12 41.9919 12 26.5632C12.1981 33.3281 24.2299 38.7834 39.0352 38.7834C53.8405 38.7834 65.8722 33.3281 66.0703 26.5632H66.0752Z" fill="#E9AA00"/>
<path d="M12.0048 26.5632H66.0752C65.877 33.3281 53.8453 38.7834 39.04 38.7834C24.2347 38.7834 12.2029 33.3281 12.0048 26.5632ZM63.4852 27.5296H43.0264L55.4109 33.9272C59.7356 32.3133 62.6976 29.9456 63.4852 27.5296ZM53.077 34.7052L40.0064 27.9549V36.522C44.8384 36.4496 49.337 35.7924 53.077 34.7052ZM38.0736 36.522V28.1143L26.4043 35.0821C29.8447 35.9422 33.7248 36.4592 38.0736 36.522ZM24.0897 34.4201L35.6238 27.5296H14.5948C15.4646 30.4289 18.9919 32.782 24.0897 34.4201Z" fill="#F1EEDA"/>
<path d="M63.6736 25.5968H42.1566L54.7634 18.0637C59.9675 19.8757 63.3644 22.6976 63.6736 25.5968Z" fill="#E9AA00"/>
<path d="M43.0264 27.5297H63.4852C62.6976 29.9457 59.7355 32.3134 55.4109 33.9273L43.0264 27.5297Z" fill="#E9AA00"/>
<path d="M40.0064 27.9549L53.077 34.7052C49.337 35.7924 44.8384 36.4496 40.0064 36.5221V27.9549Z" fill="#E9AA00"/>
<path d="M52.5117 17.4694L40.0064 24.9397V15.812C44.3552 15.8845 48.8877 16.4837 52.5117 17.4694Z" fill="#E9AA00"/>
<path d="M40.4896 64.5768V75.3667H37.5904V71.4286C37.8465 71.1483 37.9818 70.9695 37.9818 70.9695C37.8513 70.8487 37.7209 70.7279 37.5904 70.6168V64.5768C38.0688 64.6203 38.552 64.6444 39.04 64.6444C39.528 64.6444 40.0112 64.6203 40.4896 64.5768Z" fill="#469F4D"/>
<path d="M40.4896 57.4882V64.5768C40.0112 64.6203 39.528 64.6444 39.04 64.6444C38.552 64.6444 38.0688 64.6203 37.5904 64.5768V57.4882H40.4896Z" fill="#E9AA00"/>
<path d="M38.0736 28.1143V36.522C33.7248 36.4592 29.8447 35.9422 26.4043 35.0821L38.0736 28.1143Z" fill="#E9AA00"/>
<path d="M38.0736 15.812V24.9929L24.2492 17.8511C28.1341 16.6383 32.7584 15.8893 38.0736 15.812Z" fill="#E9AA00"/>
<path d="M37.5904 70.6168C37.7209 70.728 37.8513 70.8488 37.9818 70.9696C37.9818 70.9696 37.8465 71.1483 37.5904 71.4286V70.6168Z" fill="#469F4D"/>
<path d="M37.5904 70.6168V71.4286C36.0731 73.0763 30.4003 78.232 24.167 70.9695C24.167 70.9695 29.5741 63.5669 37.5904 70.6168Z" fill="#469F4D"/>
<path d="M35.6237 27.5297L24.0897 34.4201C18.9919 32.7821 15.4646 30.4289 14.5948 27.5297H35.6237Z" fill="#E9AA00"/>
<path d="M35.6093 25.5968H14.4063C14.6866 23.1808 17.5472 20.3541 21.9926 18.5614L35.6093 25.5968Z" fill="#E9AA00"/>
</svg>
