<?xml version="1.0" encoding="UTF-8"?>
<svg id="Layer_2" data-name="Layer 2" xmlns="http://www.w3.org/2000/svg" viewBox="0 0 827.69 243.41">
  <defs>
    <style>
      .cls-1 {
        fill: #e91b8d;
      }
    </style>
  </defs>
  <g id="Layer_1-2" data-name="Layer 1">
    <g>
      <path d="M184.53,140.34c1.94,13.39,1.31,25.87-1.89,37.41-3.2,11.55-8.35,21.74-15.43,30.57-7.09,8.84-15.92,16.11-26.5,21.84-10.58,5.73-22.37,9.46-35.38,11.21-13.01,1.75-25.43,1.35-37.27-1.17-11.84-2.52-22.42-7.03-31.74-13.54-9.32-6.5-17.08-14.85-23.29-25.04-6.21-10.19-10.19-21.98-11.94-35.38-1.94-13.39-1.31-25.86,1.89-37.41,3.2-11.55,8.34-21.79,15.43-30.72,7.08-8.93,15.91-16.25,26.5-21.98,10.58-5.72,22.37-9.46,35.38-11.21,13-1.75,25.38-1.36,37.12,1.17,11.74,2.52,22.27,7.04,31.59,13.54,9.32,6.51,17.08,14.9,23.29,25.19,6.21,10.29,10.29,22.13,12.23,35.52ZM62.24,165.09c3.3,7.57,8.54,12.52,15.72,14.85,7.18,2.33,15.33,1.56,24.46-2.33,8.93-3.88,15.09-9.17,18.49-15.87,3.39-6.7,3.54-13.83.44-21.4-3.3-7.37-8.54-12.27-15.72-14.7-7.18-2.42-15.24-1.7-24.17,2.18-9.13,3.88-15.39,9.22-18.78,16.01-3.4,6.8-3.54,13.88-.44,21.25Z"/>
      <path d="M249.74,66.38v32.32h.58c5.05-21.55,19.6-32.32,43.67-32.32,5.24,0,10.19.29,14.85.87l-15.14,62.02c-1.36-.19-2.82-.29-4.37-.29h-5.82c-8.15,0-15.19,2.67-21.11,8.01-5.92,5.34-8.88,13.73-8.88,25.19v74.83l-61.14,5.24-1.75-170.62,59.11-5.24Z"/>
      <path d="M417.74,63.76c11.65,0,22.32,2.52,32.03,7.57,9.7,5.05,18.15,11.7,25.33,19.94,7.18,8.25,12.76,17.62,16.74,28.1,3.98,10.48,5.97,21.16,5.97,32.03,0,14.56-2.47,27.47-7.42,38.72-4.95,11.26-11.5,20.72-19.65,28.39-8.15,7.67-17.62,13.49-28.39,17.47-10.77,3.98-21.98,5.97-33.63,5.97-8.93,0-17.32-1.55-25.19-4.66-7.86-3.1-15.19-6.41-21.98-9.9v12.52h-46l-1.75-234.67L381.06,0l-2.62,75.7c6.01-3.3,11.84-6.11,17.47-8.44,5.63-2.33,12.91-3.49,21.84-3.49ZM412.5,181.1c4.66-1.36,8.63-3.25,11.94-5.68,3.3-2.43,5.97-5.19,8.01-8.3,2.04-3.1,3.35-6.4,3.93-9.9.58-3.49.39-6.99-.58-10.48-.97-3.49-2.62-6.55-4.95-9.17-2.33-2.62-5.2-4.75-8.59-6.41-3.4-1.65-7.18-2.62-11.35-2.91-4.18-.29-8.59.25-13.25,1.6-4.66,1.36-8.69,3.3-12.08,5.82-3.4,2.53-6.11,5.34-8.15,8.44-2.04,3.11-3.35,6.41-3.93,9.9-.58,3.49-.39,6.99.58,10.48.97,3.49,2.62,6.55,4.95,9.17,2.33,2.62,5.19,4.71,8.59,6.26,3.39,1.56,7.23,2.47,11.5,2.77,4.27.29,8.73-.24,13.39-1.6Z"/>
      <path d="M502.47,75.41l64.93-5.24-3.2,168-61.73,5.24V75.41Z"/>
      <path d="M666.54,243.26c-2.82.1-5.87.15-9.17.15-18.63,0-33.15-4.22-43.53-12.67-10.39-8.44-15.58-22.17-15.58-41.2v-69.01l-16.01.29,1.75-50.37h13.68v-19.22l63.18-28.53v47.75l23.58-3.49-3.2,53.57h-19.8v50.95c0,5.82.82,9.71,2.47,11.65,1.65,1.94,5.39,2.91,11.21,2.91,2.52,0,4.56-.1,6.11-.29,1.55-.19,3.01-.48,4.37-.87l-10.19,57.65c-3.11.39-6.07.63-8.88.73Z"/>
      <path d="M703.37,71.62h121.41l-48.91,107.44h51.83l-12.52,60.56h-131.9l49.5-107.44h-41.64l12.23-60.56Z"/>
      <path class="cls-1" d="M564.41,25.12c-.66-4.39-2.06-8.27-4.18-11.64-2.12-3.37-4.77-6.12-7.96-8.25-3.18-2.13-6.78-3.61-10.79-4.44-4.01-.83-8.24-.95-12.68-.38-4.44.57-8.47,1.8-12.09,3.67-3.62,1.88-6.63,4.28-9.05,7.2-2.42,2.93-4.18,6.28-5.27,10.07-1.09,3.79-1.31,7.87-.65,12.26.6,4.39,1.96,8.25,4.08,11.59,2.12,3.34,4.78,6.08,7.96,8.21,3.18,2.13,6.8,3.61,10.84,4.44,4.04.83,8.29.95,12.73.38,4.44-.57,8.47-1.8,12.09-3.67,3.61-1.88,6.63-4.26,9.05-7.16,2.42-2.89,4.18-6.23,5.27-10.02,1.09-3.78,1.31-7.87.65-12.26Z"/>
    </g>
  </g>
</svg>