<svg width="78" height="76" viewBox="0 0 78 76" fill="none" xmlns="http://www.w3.org/2000/svg">
<path d="M68.3975 0H9.60253C4.85148 0 1 3.8008 1 8.48933V66.5107C1 71.1992 4.85148 75 9.60253 75H68.3975C73.1485 75 77 71.1992 77 66.5107V8.48933C77 3.8008 73.1485 0 68.3975 0Z" fill="black"/>
<path d="M77 65C77 70.5034 72.2355 75 66.4189 75H11.5811C5.75786 75 1 70.4972 1 65" stroke="#FFCAA9" stroke-width="1.23" stroke-miterlimit="10"/>
<path d="M40.3889 18C53.3981 18.7129 64 29.402 64 42.4796C64 55.5571 52.6343 67 39 67C25.3657 67 14 56.0203 14 42.4796C14 28.9388 24.6019 18.7129 37.6111 18V26.1326H40.3889V18Z" fill="#E9AA00"/>
<path d="M54 12.6866C54 12.6866 48.351 20.035 40 12.845V12.4799C41.1058 11.253 47.2267 5.18437 54 12.6866Z" fill="#469F4D"/>
<path d="M40 18.04V26H38V18.04C38.3333 18.0133 38.6667 18 39 18C39.3333 18 39.6667 18.0133 40 18.04Z" fill="#E9AA00"/>
<path d="M40 12.7179V18C39.6667 17.9716 39.3333 17.9573 39 17.9573C38.6667 17.9573 38.3333 17.9716 38 18V8H40V12.3243C39.9133 12.4666 39.87 12.5472 39.87 12.5472L40 12.7179Z" fill="#469F4D"/>
</svg>
