<svg width="83" height="130" viewBox="0 0 83 130" fill="none" xmlns="http://www.w3.org/2000/svg">
<g clip-path="url(#clip0_5_178)">
<path d="M67.3975 0H8.60253C3.85148 0 0 3.8008 0 8.48933V66.5107C0 71.1992 3.85148 75 8.60253 75H67.3975C72.1485 75 76 71.1992 76 66.5107V8.48933C76 3.8008 72.1485 0 67.3975 0Z" fill="black"/>
<path d="M76 65C76 70.5034 71.2355 75 65.4189 75H10.5811C4.75786 75 0 70.4972 0 65" stroke="#FFCAA9" stroke-width="1.23" stroke-miterlimit="10"/>
<path d="M37.5 14.0104C37.67 14.0104 37.835 14.026 38 14.0416V18H36V14.0935C36.33 14.0468 36.66 14.0208 37 14.0104V14C37 14 37.195 14.0052 37.25 14.0052C37.305 14.0052 37.5 14 37.5 14V14.0104Z" fill="#469F4D"/>
<path d="M36 8.26818V8.92118C30.0227 13.761 26 8.63309 26 8.63309C30.6055 3.62996 34.8035 7.07741 36 8.26818Z" fill="#237E0D"/>
<path d="M37.7284 69.9899V70C37.7284 70 37.5326 69.9949 37.4774 69.9949C37.4222 69.9949 37.2265 70 37.2265 70V69.9899C26.1847 69.813 17 60.4351 17 49.0714C17 47.0806 17.3011 45.211 17.8382 43.3971C18.3752 41.5882 19.1582 39.8298 20.1218 38.0614C20.1569 38.0614 20.1921 38.0563 20.2322 37.9957C20.3627 37.7885 20.4932 37.6874 20.6287 37.4853C25.1659 30.2599 27.1283 22.3977 27.1283 22.3977C28.1873 18.1584 31.6805 14.6316 36.2177 14.0505V17.8502H38.2252V14C43.0083 14.3739 46.7826 18.0018 47.8767 22.3977H47.8968C47.8968 22.3977 49.8743 30.2245 54.4114 37.45C54.5469 37.6521 54.6825 37.8289 54.8129 38.0411C54.833 38.0664 54.8481 38.0715 54.8631 38.0715C54.8882 38.0715 54.9083 38.0614 54.9284 38.0614C56.8557 41.5983 58 45.0898 58 49.0714C58 60.4351 48.7651 69.813 37.7233 69.9899H37.7284Z" fill="#469F4D"/>
<path d="M37.5 14.9026C37.5 14.9026 37.305 14.908 37.25 14.908C37.195 14.908 37 14.9026 37 14.9026V14.9134C36.66 14.9242 36.33 14.9513 36 15V8.83117C36.11 8.72294 36.22 8.62013 36.33 8.50649C36.33 8.50649 36.215 8.34416 36 8.09524V5H38V14.9459C37.835 14.9297 37.67 14.9188 37.5 14.9134V14.9026Z" fill="#237E0D"/>
</g>
<defs>
<clipPath id="clip0_5_178">
<rect width="82.2" height="129.71" fill="white"/>
</clipPath>
</defs>
</svg>
