<svg width="78" height="76" viewBox="0 0 78 76" fill="none" xmlns="http://www.w3.org/2000/svg">
<path d="M68.3975 0H9.60253C4.85148 0 1 3.8008 1 8.48933V66.5107C1 71.1992 4.85148 75 9.60253 75H68.3975C73.1485 75 77 71.1992 77 66.5107V8.48933C77 3.8008 73.1485 0 68.3975 0Z" fill="black"/>
<path d="M77 65C77 70.5034 72.2355 75 66.4189 75H11.5811C5.75786 75 1 70.4972 1 65" stroke="#FFCAA9" stroke-width="1.23" stroke-miterlimit="10"/>
<path d="M65.7367 43.9963L68.775 46.9344C60.7619 54.7171 50.1079 58.9848 38.7809 58.9848H38.7731C27.4421 58.9848 16.7921 54.656 8.77502 46.8732L11.8016 43.9848C26.718 58.4155 50.8242 58.4079 65.7367 43.9963Z" fill="#237E0D"/>
<path d="M38.8635 16.9848L65.775 43.8232L65.716 43.8817L62.798 40.9983C56.3798 47.3573 47.8497 50.9848 38.777 50.9848H38.7731C29.7042 50.9848 21.1703 47.3767 14.7521 41.0178L11.8222 43.87L11.775 43.8232L38.8635 16.9848ZM52.6712 37.3357C52.6712 35.368 51.0588 33.7705 49.0689 33.7705C47.0789 33.7705 45.4705 35.368 45.4705 37.3357C45.4705 39.3034 47.0829 40.9048 49.0689 40.9048C51.0549 40.9048 52.6712 39.3073 52.6712 37.3357ZM42.4187 27.9025C42.4187 25.9348 40.8063 24.3373 38.8163 24.3373C36.8264 24.3373 35.214 25.9348 35.214 27.9025C35.214 29.8702 36.8264 31.4716 38.8163 31.4716C40.8063 31.4716 42.4187 29.8741 42.4187 27.9025ZM31.4307 37.3357C31.4307 35.368 29.8183 33.7705 27.8283 33.7705C25.8384 33.7705 24.2299 35.368 24.2299 37.3357C24.2299 39.3034 25.8423 40.9048 27.8283 40.9048C29.8144 40.9048 31.4307 39.3073 31.4307 37.3357Z" fill="#E75244"/>
<path d="M62.8512 40.9848L65.775 43.8873C50.8446 58.682 26.7094 58.6899 11.775 43.8755L14.7107 41.0044C21.1415 47.4055 29.6923 51.0375 38.779 51.0375H38.7829C47.8735 51.0375 56.4204 47.3859 62.8512 40.9848Z" fill="#237E0D"/>
<path d="M49.2731 33.9848C51.2076 33.9848 52.775 35.5522 52.775 37.4829C52.775 39.4135 51.2076 40.9848 49.2731 40.9848C47.3387 40.9848 45.775 39.4174 45.775 37.4829C45.775 35.5484 47.3425 33.9848 49.2731 33.9848Z" fill="black"/>
<path d="M38.275 23.9848C40.2084 23.9848 41.775 25.5523 41.775 27.4829C41.775 29.4135 40.2084 30.9848 38.275 30.9848C36.3416 30.9848 34.775 29.4174 34.775 27.4829C34.775 25.5484 36.3416 23.9848 38.275 23.9848Z" fill="black"/>
<path d="M27.2731 33.9848C29.2076 33.9848 30.775 35.5522 30.775 37.4829C30.775 39.4135 29.2076 40.9848 27.2731 40.9848C25.3387 40.9848 23.775 39.4174 23.775 37.4829C23.775 35.5484 25.3425 33.9848 27.2731 33.9848Z" fill="black"/>
</svg>
